HIERARCHY
ROOT Hips
{
	OFFSET	0.000000	0.000000	0.000000
	CHANNELS 6 Xposition Yposition Zposition Zrotation Xrotation Yrotation
	JOINT LeftUpLeg
	{
		OFFSET	12.830505	-7.049846	-1.643436
		CHANNELS 3 Zrotation Xrotation Yrotation
		JOINT LeftLeg
		{
			OFFSET	0.620834	-39.957500	-1.919341
			CHANNELS 3 Zrotation Xrotation Yrotation
			JOINT LeftFoot
			{
				OFFSET	-0.413890	-44.704761	-3.870325
				CHANNELS 3 Zrotation Xrotation Yrotation
				JOINT LeftFootHeel
				{
					OFFSET	0.717369	-8.904096	-5.182565
					CHANNELS 3 Zrotation Xrotation Yrotation
					End Site
					{
						OFFSET	0.332974	0.000000	18.777164
					}
				}
			}
		}
	}
	JOINT RightUpLeg
	{
		OFFSET	-12.830505	-7.049846	-1.643436
		CHANNELS 3 Zrotation Xrotation Yrotation
		JOINT RightLeg
		{
			OFFSET	-0.620834	-39.957500	-1.919341
			CHANNELS 3 Zrotation Xrotation Yrotation
			JOINT RightFoot
			{
				OFFSET	0.413890	-44.704761	-3.870325
				CHANNELS 3 Zrotation Xrotation Yrotation
				JOINT RightFootHeel
				{
					OFFSET	-0.717369	-8.904096	-5.182565
					CHANNELS 3 Zrotation Xrotation Yrotation
					End Site
					{
						OFFSET	-0.332974	0.000000	18.777164
					}
				}
			}
		}
	}
	JOINT Spine
	{
		OFFSET	0.000000	12.498170	1.820647
		CHANNELS 3 Zrotation Xrotation Yrotation
		JOINT Spine1
		{
			OFFSET	0.000000	7.620000	0.000000
			CHANNELS 3 Zrotation Xrotation Yrotation
			JOINT LeftShoulder
			{
				OFFSET	9.167800	29.136339	-5.551221
				CHANNELS 3 Zrotation Xrotation Yrotation
				JOINT LeftArm
				{
					OFFSET	12.133453	-3.880866	1.461963
					CHANNELS 3 Zrotation Xrotation Yrotation
					JOINT LeftForeArm
					{
						OFFSET	2.507115	-31.664908	-1.069404
						CHANNELS 3 Zrotation Xrotation Yrotation
						JOINT LeftHand
						{
							OFFSET	4.116172	-24.512624	5.009439
							CHANNELS 3 Zrotation Xrotation Yrotation
							End Site
							{
								OFFSET	-0.213136	-10.931856	2.182134
							}
						}
					}
				}
			}
			JOINT RightShoulder
			{
				OFFSET	-9.167800	29.136339	-5.551221
				CHANNELS 3 Zrotation Xrotation Yrotation
				JOINT RightArm
				{
					OFFSET	-12.133453	-3.880866	1.461963
					CHANNELS 3 Zrotation Xrotation Yrotation
					JOINT RightForeArm
					{
						OFFSET	-2.507115	-31.664908	-1.069404
						CHANNELS 3 Zrotation Xrotation Yrotation
						JOINT RightHand
						{
							OFFSET	-4.116172	-24.512624	5.009439
							CHANNELS 3 Zrotation Xrotation Yrotation
							End Site
							{
								OFFSET	0.213136	-10.931856	2.182134
							}
						}
					}
				}
			}
			JOINT Neck
			{
				OFFSET	0.000000	32.926272	-3.635654
				CHANNELS 3 Zrotation Xrotation Yrotation
				JOINT Head
				{
					OFFSET	0.000000	12.481178	4.646143
					CHANNELS 3 Zrotation Xrotation Yrotation
					End Site
					{
						OFFSET	0.000000	17.715204	-2.222063
					}
				}
			}
		}
	}
}
MOTION
Frames:    7
Frame Time: 0.016667
11.777486	61.390099	229.457347	171.127274	-155.408340	-22.350266	-59.855694	-135.101974	-63.058445	4.648979	105.099548	4.825339	-13.453305	-12.432248	-5.629954	0.	0.	0.	-6.578716	-117.038841	3.406915	-25.621977	102.043480	42.655613	-3.012265	-11.399981	2.170560	0.	0.	0.	2.997923	-17.029116	-7.495313	-11.980310	11.787498	31.471609	6.424852	5.264740	-1.523479	26.423140	-34.021553	16.629646	-5.733778	-36.890068	-17.083204	44.811089	-17.526476	-0.899878	-6.806139	-7.405066	-4.099539	-63.620899	-10.754225	-59.614895	-22.724993	-140.030807	-44.117229	38.743439	26.164877	-27.382290	4.391666	-0.943023	-36.731525	7.368621	-8.260299	-28.252653	
11.774029	61.390414	229.461727	171.136780	-155.405624	-22.324814	-59.836575	-135.083008	-63.044151	4.648984	105.099548	4.825340	-13.453301	-12.432249	-5.629950	0.	0.	0.	-6.528024	-117.035637	3.453700	-25.621979	102.043480	42.655609	-3.012264	-11.399981	2.170559	0.	0.	0.	3.000367	-17.029463	-7.517807	-11.980313	11.787496	31.471609	6.428234	5.284011	-1.523961	26.384398	-34.054768	16.607351	-5.693877	-36.901722	-17.042902	44.799801	-17.536570	-0.935273	-6.820888	-7.402493	-4.118744	-63.678577	-10.856567	-59.523746	-22.838175	-139.939789	-44.237385	38.628914	26.464560	-27.447195	4.516583	-0.857739	-36.711014	7.296169	-8.395848	-28.203993	
11.773232	61.390486	229.462715	171.138901	-155.405029	-22.319160	-59.832329	-135.078781	-63.040966	4.648990	105.099533	4.825350	-13.453303	-12.432249	-5.629952	0.	0.	0.	-6.516753	-117.034927	3.464100	-25.621981	102.043442	42.655609	-3.012263	-11.399981	2.170558	0.	0.	0.	3.000911	-17.029543	-7.522807	-11.980312	11.787497	31.471609	6.428233	5.284014	-1.523957	26.325756	-34.085136	16.559280	-5.643994	-36.887932	-16.986830	44.806423	-17.567760	-0.978903	-6.839913	-7.399168	-4.143504	-63.705139	-11.035165	-59.365299	-23.084290	-139.845444	-44.397125	38.442944	26.889132	-27.510851	4.652749	-0.782695	-36.602947	7.167079	-8.509654	-28.185869	
11.773063	61.390850	229.463122	171.141144	-155.409729	-22.318491	-59.836788	-135.076431	-63.047394	4.648987	105.099487	4.825344	-13.453300	-12.432249	-5.629953	0.	0.	0.	-6.518305	-117.029869	3.462269	-25.621979	102.043480	42.655609	-3.012262	-11.399981	2.170560	0.	0.	0.	3.000986	-17.024420	-7.522821	-11.980311	11.787494	31.471609	6.428233	5.284012	-1.523960	26.334829	-34.119408	16.559629	-5.641635	-36.853512	-16.964113	44.812111	-17.580147	-0.999481	-6.839914	-7.399169	-4.143507	-63.775848	-11.103212	-59.290333	-23.181101	-139.816772	-44.453461	38.394955	26.979521	-27.559765	4.705391	-0.732768	-36.581669	7.172956	-8.554618	-28.070559	
11.772372	61.392400	229.464905	171.150375	-155.429337	-22.315674	-59.855358	-135.066605	-63.074181	4.648991	105.099487	4.825352	-13.453302	-12.432253	-5.629947	0.	0.	0.	-6.524736	-117.008766	3.454680	-25.621988	102.043465	42.655594	-3.012262	-11.399982	2.170562	0.	0.	0.	3.001293	-17.003057	-7.522915	-11.980310	11.787498	31.471609	6.428235	5.284015	-1.523961	26.385374	-34.215382	16.604189	-5.671315	-36.748352	-16.946499	44.824516	-17.605347	-1.042090	-6.839687	-7.405677	-4.144660	-63.827805	-11.111812	-59.248383	-23.183550	-139.795959	-44.474796	38.409698	27.117346	-27.615074	4.712904	-0.733704	-36.563023	7.201348	-8.553736	-28.031834	
11.771604	61.394125	229.466959	171.160904	-155.451706	-22.312477	-59.876587	-135.055420	-63.104755	4.648990	105.099503	4.825346	-13.453301	-12.432247	-5.629953	0.	0.	0.	-6.532098	-116.984764	3.445989	-25.621979	102.043480	42.655609	-3.012263	-11.399980	2.170562	0.	0.	0.	3.036772	-17.094645	-7.529199	-12.037003	11.892193	31.511591	6.428233	5.284010	-1.523957	26.445292	-34.359665	16.713951	-5.782806	-36.586548	-16.903664	44.802719	-17.713406	-1.071826	-6.838357	-7.443966	-4.151460	-63.910328	-11.192818	-59.150661	-23.292742	-139.796219	-44.576469	38.356777	27.229124	-27.641106	4.721973	-0.761304	-36.493736	7.285212	-8.522965	-27.929296	
11.770626	61.396329	229.469459	171.174042	-155.479599	-22.308512	-59.903069	-135.041473	-63.142895	4.648984	105.099518	4.825345	-13.453302	-12.432254	-5.629950	0.	0.	0.	-6.541332	-116.954750	3.435122	-25.621984	102.043480	42.655598	-3.012262	-11.399982	2.170561	0.	0.	0.	3.059634	-17.135719	-7.532853	-12.072717	11.956606	31.536221	6.436301	5.282609	-1.515021	26.440086	-34.475395	16.878687	-6.018892	-36.495853	-16.884840	44.855282	-17.895950	-1.272635	-6.837918	-7.456678	-4.153715	-63.897911	-11.257446	-59.111298	-23.368519	-139.828690	-44.570946	38.402466	27.317137	-27.698961	4.724452	-0.802916	-36.414749	7.318457	-8.483451	-27.880583	
